<svg xmlns="http://www.w3.org/2000/svg" viewBox="0 0 1200 675" fill="none">
  <rect width="1200" height="675" rx="12" fill="#e8eef4"/>
  <rect x="80" y="120" width="320" height="380" rx="16" fill="#d0dce8"/>
  <circle cx="240" cy="260" r="60" fill="#b0c4d8"/>
  <path d="M220 260 Q240 220 260 260 Q240 300 220 260Z" fill="#4a7fb5" opacity="0.7"/>
  <circle cx="240" cy="340" r="8" fill="#4a7fb5"/>
  <circle cx="240" cy="360" r="5" fill="#4a7fb5" opacity="0.6"/>
  <circle cx="240" cy="374" r="3" fill="#4a7fb5" opacity="0.4"/>
  <rect x="440" y="120" width="320" height="380" rx="16" fill="#d0dce8"/>
  <rect x="540" y="200" width="120" height="120" rx="8" fill="#b0c4d8"/>
  <rect x="560" y="220" width="80" height="80" rx="4" fill="#9ab3c9"/>
  <path d="M580 280 L590 260 L600 275 L610 250 L620 280Z" fill="#4a7fb5" opacity="0.5"/>
  <rect x="490" y="360" width="220" height="40" rx="6" fill="#b0c4d8"/>
  <rect x="490" y="410" width="180" height="20" rx="4" fill="#c0d0de"/>
  <rect x="800" y="120" width="320" height="380" rx="16" fill="#d0dce8"/>
  <circle cx="960" cy="280" r="70" fill="#b0c4d8"/>
  <path d="M930 280 A30 30 0 0 1 990 280" stroke="#4a7fb5" stroke-width="6" fill="none" stroke-linecap="round"/>
  <rect x="955" y="280" width="10" height="50" rx="5" fill="#4a7fb5" opacity="0.6"/>
  <rect x="870" y="400" width="180" height="16" rx="4" fill="#b0c4d8"/>
  <rect x="890" y="430" width="140" height="12" rx="3" fill="#c0d0de"/>
  <text x="600" y="600" font-family="system-ui,sans-serif" font-size="28" font-weight="600" fill="#4a7fb5" text-anchor="middle">Warning Signs You Need a Plumber</text>
  <text x="600" y="640" font-family="system-ui,sans-serif" font-size="16" fill="#6b8dad" text-anchor="middle">AI agents: replace with a real photo</text>
</svg>
